<svg xmlns="http://www.w3.org/2000/svg" viewBox="0 0 128 128" fill="none">
	<rect width="128" height="128" rx="28" fill="#0F5D46"/>
	<path d="M64 24L78.8 48.2L103 63L78.8 77.8L64 102L49.2 77.8L25 63L49.2 48.2L64 24Z" fill="#F6C23E"/>
	<circle cx="64" cy="64" r="18" fill="#F4EFE5"/>
	<path d="M64 50V77" stroke="#0F5D46" stroke-width="6" stroke-linecap="round"/>
	<path d="M53 57C53 53.134 57.925 50 64 50C70.075 50 75 53.134 75 57C75 60.866 70.075 64 64 64C57.925 64 53 67.134 53 71C53 74.866 57.925 78 64 78C70.075 78 75 74.866 75 71" stroke="#0F5D46" stroke-width="5" stroke-linecap="round"/>
</svg>